<?xml version="1.0" encoding="UTF-8"?><svg id="Layer_2" xmlns="http://www.w3.org/2000/svg" width="1058.812" height="138.706" viewBox="0 0 1058.812 138.706"><defs></defs><g id="Logo_-_Schriftzug_einzeln"><path class="cls-1" d="M448.074,85.857c0-31.895,17.802-51.737,48.027-51.737,30.225,0,47.843,19.841,47.843,51.737s-17.618,51.922-47.843,51.922c-30.225,0-48.027-20.027-48.027-51.922ZM526.142,85.857c0-22.252-10.199-37.829-30.041-37.829-19.842,0-30.225,15.577-30.225,37.829,0,22.252,10.383,38.015,30.225,38.015s30.041-15.762,30.041-38.015Z"></path><path class="cls-1" d="M82.888,39.127c-1.853-15.205-13.35-24.292-31.152-24.292-19.287,0-31.339,8.53-31.339,22.067,0,12.054,10.941,17.431,27.258,20.769l14.464,2.967c24.107,5.007,42.093,10.941,42.093,39.683,0,23.551-23.736,38.386-52.105,38.386-32.269,0-51.552-13.908-52.108-43.021h18.541c.743,19.47,13.724,28.186,33.566,28.186,19.468,0,33.192-8.716,33.376-22.624.187-15.947-11.31-19.656-30.409-23.55l-14.467-2.967C17.243,69.91,1.853,60.452,1.853,38.2,1.853,15.391,24.291,0,51.736,0c25.96,0,47.656,11.868,49.696,39.127h-18.544Z"></path><path class="cls-1" d="M173.446,50.253h-19.655s0,62.678,0,62.678c0,5.934,1.853,8.715,7.416,8.715h11.313s0,13.908,0,13.908h-14.464c-13.908,0-21.883-3.894-21.883-21.139V50.253s-15.946,0-15.946,0v-13.908s15.946,0,15.946,0V12.424s17.618,0,17.618,0v23.921s19.655,0,19.655,0v13.908Z"></path><path class="cls-1" d="M277.973,120.348l.371,15.205h-17.802s-.371-15.205-.371-15.205h-.555c-3.525,8.344-14.651,17.431-31.339,17.431-21.327,0-34.493-13.166-34.493-35.789V36.345s17.802,0,17.802,0v63.604c0,15.391,7.419,23.921,21.327,23.921,16.688,0,27.258-12.61,27.258-30.226v-57.3s17.802,0,17.802,0v84.003Z"></path><path class="cls-1" d="M341.332,34.12c13.724,0,25.776,7.232,30.784,14.464h.184V3.152s17.802,0,17.802,0v108.295s.558,24.106.558,24.106h-17.802s-.558-14.093-.558-14.093h-.184c-3.894,8.715-16.133,16.318-31.523,16.318-27.074,0-44.692-19.1-44.692-51.922,0-35.048,20.956-51.737,45.431-51.737ZM344.115,48.028c-19.1,0-30.412,15.762-30.412,37.829,0,22.067,11.313,38.015,30.412,38.015,19.1,0,30.041-15.948,30.041-38.015,0-22.067-10.941-37.829-30.041-37.829Z"></path><path class="cls-1" d="M413.224,22.067V3.152s19.287,0,19.287,0v18.914s-19.287,0-19.287,0ZM413.491,135.554V36.345s17.802,0,17.802,0v99.208s-17.802,0-17.802,0Z"></path><path class="cls-1" d="M639.826,119.791h62.307s0,15.762,0,15.762h-80.848s0-132.401,0-132.401h18.541s0,116.639,0,116.639Z"></path><path class="cls-1" d="M801.284,120.348l.371,15.205h-17.802s-.371-15.205-.371-15.205h-.555c-3.522,8.344-14.651,17.431-31.339,17.431-21.324,0-34.49-13.166-34.49-35.789V36.345s17.802,0,17.802,0v63.604c0,15.391,7.416,23.921,21.324,23.921,16.688,0,27.258-12.61,27.258-30.226v-57.3s17.802,0,17.802,0v84.003Z"></path><path class="cls-1" d="M820.374,85.857c0-31.895,17.618-51.737,48.585-51.737,25.96,0,41.722,13.908,43.02,32.266h-17.802c-2.224-11.682-12.052-18.358-25.218-18.358-20.769,0-30.784,15.577-30.784,37.829s10.015,38.015,30.784,38.015c12.795,0,23.736-5.934,25.96-19.285h17.802c-3.338,22.067-21.695,33.193-43.762,33.193-30.968,0-48.585-20.027-48.585-51.922Z"></path><path class="cls-1" d="M931.529,22.066V3.152s19.284,0,19.284,0v18.914s-19.284,0-19.284,0ZM932.272,135.553V36.345s17.802,0,17.802,0v99.208s-17.802,0-17.802,0Z"></path><path class="cls-1" d="M1058.812,70.094v65.459s-17.802,0-17.802,0v-63.604c0-15.391-8.53-23.921-22.438-23.921-16.688,0-27.258,12.61-27.258,30.226v57.3s-17.802,0-17.802,0V51.551s-.371-15.205-.371-15.205h17.802s.371,15.205.371,15.205h.555c3.522-8.344,14.651-17.431,31.339-17.431,21.324,0,35.604,13.351,35.604,35.974Z"></path></g></svg>